<?xml version="1.0" standalone="no"?>
<!DOCTYPE svg PUBLIC "-//W3C//DTD SVG 20010904//EN"
 "http://www.w3.org/TR/2001/REC-SVG-20010904/DTD/svg10.dtd">
<svg version="1.0" xmlns="http://www.w3.org/2000/svg"
 width="200.000000pt" height="200.000000pt" viewBox="0 0 200.000000 200.000000"
 preserveAspectRatio="xMidYMid meet">
<metadata>
Created by potrace 1.11, written by Peter Selinger 2001-2013
</metadata>
<g transform="translate(0.000000,200.000000) scale(0.100000,-0.100000)"
fill="#000000" stroke="none">
<path d="M0 1000 l0 -1000 1000 0 1000 0 0 1000 0 1000 -1000 0 -1000 0 0
-1000z m987 765 c56 -24 91 -54 119 -101 l27 -45 -19 -40 c-18 -40 -47 -69
-70 -69 -22 0 -72 59 -138 165 -36 57 -66 107 -66 110 0 9 114 -6 147 -20z
m584 -255 c60 -39 139 -123 139 -149 0 -27 -10 -31 -73 -35 -41 -2 -73 -14
-140 -50 -65 -35 -95 -46 -121 -44 l-34 3 38 67 c63 109 63 108 -17 102 -37
-2 -99 -8 -138 -13 -38 -5 -185 -19 -325 -31 -402 -33 -356 -24 -370 -74 -6
-24 -29 -75 -51 -114 -53 -96 -92 -106 -137 -37 -39 61 -38 85 4 140 35 47 58
92 100 200 30 76 78 72 90 -7 l7 -39 76 6 c74 7 290 28 642 64 96 10 184 23
195 29 32 19 65 14 115 -18z m-148 -366 c50 -17 97 -63 97 -95 0 -29 -39 -49
-85 -44 -53 6 -304 7 -330 1 -11 -2 -26 -5 -34 -5 -10 -1 -8 -8 9 -26 23 -24
23 -27 12 -107 -7 -46 -14 -180 -16 -298 -5 -242 -14 -293 -60 -353 -52 -69
-105 -63 -128 15 -6 22 -35 65 -68 101 -31 34 -62 72 -69 85 -26 49 14 55 107
15 73 -31 76 -29 88 52 14 101 -1 473 -20 492 -3 3 -65 -4 -138 -16 -187 -30
-210 -30 -256 3 -21 14 -51 39 -66 55 l-27 28 118 7 c65 4 249 29 408 55 316
54 387 59 458 35z"/>
</g>
</svg>
